<mxfile host="app.diagrams.net" modified="2022-05-15T09:13:20.909Z" agent="5.0 (Macintosh; Intel Mac OS X 10_15_7) AppleWebKit/537.36 (KHTML, like Gecko) Chrome/101.0.4951.64 Safari/537.36" etag="kT2FuWQfXP9-i-jlyXCL" version="18.0.4" type="github">
  <diagram id="dJxRJvLL9PyWsS03S1uW" name="第 1 页">
    <mxGraphModel dx="951" dy="643" grid="1" gridSize="10" guides="1" tooltips="1" connect="1" arrows="1" fold="1" page="1" pageScale="1" pageWidth="827" pageHeight="1169" math="0" shadow="0">
      <root>
        <mxCell id="0" />
        <mxCell id="1" parent="0" />
        <mxCell id="G3cywYooVXJ9Tn55XhnL-7" style="rounded=0;orthogonalLoop=1;jettySize=auto;html=1;fontSize=22;sketch=0;exitX=0;exitY=1;exitDx=0;exitDy=0;entryX=0.5;entryY=0;entryDx=0;entryDy=0;fillColor=#6a00ff;strokeColor=#3700CC;" edge="1" parent="1" source="G3cywYooVXJ9Tn55XhnL-1" target="G3cywYooVXJ9Tn55XhnL-2">
          <mxGeometry relative="1" as="geometry">
            <mxPoint x="370" y="230" as="targetPoint" />
          </mxGeometry>
        </mxCell>
        <mxCell id="G3cywYooVXJ9Tn55XhnL-8" style="rounded=0;orthogonalLoop=1;jettySize=auto;html=1;fontSize=22;sketch=0;fillColor=#6a00ff;strokeColor=#3700CC;" edge="1" parent="1">
          <mxGeometry relative="1" as="geometry">
            <mxPoint x="470" y="240" as="targetPoint" />
            <mxPoint x="430" y="190" as="sourcePoint" />
          </mxGeometry>
        </mxCell>
        <mxCell id="G3cywYooVXJ9Tn55XhnL-1" value="&lt;font style=&quot;font-size: 22px;&quot;&gt;10&lt;/font&gt;" style="ellipse;whiteSpace=wrap;html=1;aspect=fixed;sketch=0;fillColor=#6a00ff;fontColor=#ffffff;strokeColor=#3700CC;" vertex="1" parent="1">
          <mxGeometry x="389" y="160" width="50" height="50" as="geometry" />
        </mxCell>
        <mxCell id="G3cywYooVXJ9Tn55XhnL-9" style="rounded=0;orthogonalLoop=1;jettySize=auto;html=1;fontSize=22;sketch=0;fillColor=#6a00ff;strokeColor=#3700CC;" edge="1" parent="1">
          <mxGeometry relative="1" as="geometry">
            <mxPoint x="310" y="310" as="targetPoint" />
            <mxPoint x="340" y="280" as="sourcePoint" />
          </mxGeometry>
        </mxCell>
        <mxCell id="G3cywYooVXJ9Tn55XhnL-10" style="rounded=0;orthogonalLoop=1;jettySize=auto;html=1;fontSize=22;sketch=0;exitX=1.016;exitY=0.806;exitDx=0;exitDy=0;exitPerimeter=0;fillColor=#6a00ff;strokeColor=#3700CC;" edge="1" parent="1" source="G3cywYooVXJ9Tn55XhnL-2">
          <mxGeometry relative="1" as="geometry">
            <mxPoint x="420" y="310" as="targetPoint" />
            <mxPoint x="390" y="270" as="sourcePoint" />
          </mxGeometry>
        </mxCell>
        <mxCell id="G3cywYooVXJ9Tn55XhnL-2" value="&lt;span style=&quot;font-size: 22px;&quot;&gt;9&lt;/span&gt;" style="ellipse;whiteSpace=wrap;html=1;aspect=fixed;sketch=0;fillColor=#6a00ff;fontColor=#ffffff;strokeColor=#3700CC;" vertex="1" parent="1">
          <mxGeometry x="339" y="240" width="50" height="50" as="geometry" />
        </mxCell>
        <mxCell id="G3cywYooVXJ9Tn55XhnL-3" value="&lt;font style=&quot;font-size: 22px;&quot;&gt;16&lt;/font&gt;" style="ellipse;whiteSpace=wrap;html=1;aspect=fixed;sketch=0;fillColor=#6a00ff;fontColor=#ffffff;strokeColor=#3700CC;" vertex="1" parent="1">
          <mxGeometry x="455" y="240" width="50" height="50" as="geometry" />
        </mxCell>
        <mxCell id="G3cywYooVXJ9Tn55XhnL-4" value="&lt;span style=&quot;font-size: 22px;&quot;&gt;3&lt;/span&gt;" style="ellipse;whiteSpace=wrap;html=1;aspect=fixed;sketch=0;fillColor=#6a00ff;fontColor=#ffffff;strokeColor=#3700CC;" vertex="1" parent="1">
          <mxGeometry x="289" y="310" width="50" height="50" as="geometry" />
        </mxCell>
        <mxCell id="G3cywYooVXJ9Tn55XhnL-5" value="&lt;font style=&quot;font-size: 22px;&quot;&gt;10&lt;/font&gt;" style="ellipse;whiteSpace=wrap;html=1;aspect=fixed;sketch=0;fillColor=#6a00ff;fontColor=#ffffff;strokeColor=#3700CC;" vertex="1" parent="1">
          <mxGeometry x="405" y="310" width="50" height="50" as="geometry" />
        </mxCell>
      </root>
    </mxGraphModel>
  </diagram>
</mxfile>
